<?xml version="1.0" encoding="utf-8"?>
<svg width="24" height="24" viewBox="0 0 24 24" xmlns="http://www.w3.org/2000/svg">
  <path d="M 12 0 C 5.374 0 0 5.373 0 12 C 0 17.302 3.438 21.8 8.207 23.387 C 8.806 23.498 9 23.126 9 22.81 L 9 20.576 C 5.662 21.302 4.967 19.16 4.967 19.16 C 4.421 17.773 3.634 17.404 3.634 17.404 C 2.545 16.659 3.717 16.675 3.717 16.675 C 4.922 16.759 5.556 17.912 5.556 17.912 C 6.626 19.746 8.363 19.216 9.048 18.909 C 9.155 18.134 9.466 17.604 9.81 17.305 C 7.145 17 4.343 15.971 4.343 11.374 C 4.343 10.063 4.812 8.993 5.579 8.153 C 5.455 7.85 5.044 6.629 5.696 4.977 C 5.696 4.977 6.704 4.655 8.997 6.207 C 9.954 5.941 10.98 5.808 12 5.803 C 13.02 5.808 14.047 5.941 15.006 6.207 C 17.297 4.655 18.303 4.977 18.303 4.977 C 18.956 6.63 18.545 7.851 18.421 8.153 C 19.191 8.993 19.656 10.064 19.656 11.374 C 19.656 15.983 16.849 16.998 14.177 17.295 C 14.607 17.667 15 18.397 15 19.517 L 15 22.81 C 15 23.129 15.192 23.504 15.801 23.386 C 20.566 21.797 24 17.3 24 12 C 24 5.373 18.627 0 12 0 Z" style="fill: rgb(255, 255, 255);"/>
</svg>